<svg height="100" viewBox="0 0 100 100" width="100" xmlns="http://www.w3.org/2000/svg" xmlns:sketch="http://www.bohemiancoding.com/sketch/ns"><g id="MiMedia---Web" fill="none" fill-rule="evenodd"><g id="icon24pt-download" fill="#000" transform="translate(2 2)"><path id="Shape-4" d="m44 38.6711197v26.3465703c0 2.2029621 1.790861 3.98231 4 3.98231 2.2245407 0 4-1.7829409 4-3.98231v-26.2736775l8.3226805 8.3226804c1.5664104 1.5664104 4.0716432 1.5389834 5.6337404-.0231138 1.5729878-1.5729878 1.5724456-4.0844087.0231138-5.6337404l-14.6778348-14.6778348c-.7207101-1.0466393-1.9306494-1.7320039-3.3016999-1.7320039-1.2507324 0-2.3595024.5636182-3.0905668 1.447978l-14.9618607 14.9618607c-1.5493317 1.5493317-1.549874 4.0607526.0231138 5.6337404 1.5620972 1.5620972 4.0673301 1.5895242 5.6337404.0231138zm-27.284 40.6128803c8.5888 8.5976 18.9024 12.716 31.284 12.716 12.0296 0 22.3432-4.1272 30.9408-12.716s13.0592-19.2544 13.0592-31.284-4.4704-22.3432-13.0592-30.9408-18.9024-13.0592-30.9408-13.0592-22.6864 4.4704-31.284 13.0592-12.716 18.9024-12.716 30.9408c0 12.3728 4.1272 22.6864 12.716 31.284zm31.284 4.716c9.8424 0 18.2808-3.3768 25.3152-10.404s10.6848-15.7536 10.6848-25.596-3.6576-18.2808-10.6848-25.3152-15.4656-10.6848-25.3152-10.6848-18.5616 3.6576-25.596 10.6848-10.404 15.4656-10.404 25.3152c0 10.1232 3.3768 18.5616 10.404 25.596s15.4656 10.404 25.596 10.404z"/></g></g></svg>